/* XPM */
static char *b937d964b02b4a30818f276fa8f2998b1bWtf3rsUvmYyaYr[] = {
/* columns rows colors chars-per-pixel */
"80 80 30 1 ",
"  c None",
". c #341D27",
"X c #423A28",
"o c #6A352C",
"O c #6A3931",
"+ c #3A6426",
"@ c #5D5439",
"# c #755733",
"$ c #6D6F35",
"% c #313543",
"& c #2B506F",
"* c #45465E",
"= c #575E6F",
"- c #A03B1E",
"; c #A54D34",
": c #94703A",
"> c #D05721",
", c #C16A2A",
"< c #5B851E",
"1 c #7B9D25",
"2 c #D78632",
"3 c #F0A53B",
"4 c #BC8D44",
"5 c #CEB164",
"6 c #25709D",
"7 c #757D90",
"8 c #25859D",
"9 c #A4AAAA",
"0 c #C0C0C0",
"q c gray83",
/* pixels */
"=999999999999999=999999999999999=999999999999999********************************",
"=979999999999979=979999999999979=979999999999979>>>>>>>>>>>>>>>>1111111111111111",
"=999999999999999=999999999999999=999999999999999>**************>1**************1",
"=999999999999999=999999999999999=999999999999999>=>>>==*===->>=>1=111==*===<11=1",
"=999999999999999=999999999999999=999999999999999-%-%%%%%%%*%%-%-<%<%%%%%%%*%%<%<",
"=999999999999999=999999999999999=999999999999999>*>**********>*>1*1**********1*1",
"=979999999999979=979999999999979=979999999999979>====*=========>1====*=========1",
"=999999999999999=999999999999999=999999999999999>**************>1**************1",
"%q0000000000000q%q0000000000000q=999999999999999-%%%%%*%%%%%%%%-<%%%%%*%%%%%%%%<",
"%===============%===============================>==========*===>1==========*===1",
"%7%77777777777%7%7%77777777777%==999999999999999>**************>1**************1",
"%777777777777777%77777777777777==979999999999979-%>%%*%%%%%%%-%>1%1%%*%%%%%%%<%1",
"%777777777777777%7777777777777===999999999999999>*>**********>*>1*1**********1*1",
"%777777777777777%7777777777777===999999999999999-=>>>======>>>=-<=11=====*=111=<",
"%7%777+7777777%7%7%777+777777=%==999999999999999>**************>1**************1",
"%77+7<+7<7771777%77+7<+7<7777====999999999999999>>>>>>>>>>>>>>>>1111111111111111",
"+++++++++++++1+++++++++++++++<++=499999999999999********************************",
"+<<<<<<<<<+1<1<<+<<<<<<<<<<1<<++=4:4999999999979%%===777777777%%%%=====7777777%%",
"+<<<<<<<+<+1111++<<<<<<<<1<1+<<+=449999999999999%===22222222777%%======77777777%",
"+<<<<1<<<<<<<<<<+<<<<1<<<<<<++++=999999999999999===2233333322777==*%%%%%%%%%%=77",
"+<<<<1<<<<<<<<<<+<<<<1<<<<<<<+++=499999999994449==*2332222332=77==%%22222222%%77",
"+<<1<11<1<<<<<<<+<<1<11<1<<<<+++=999999999444444==%2323333232%77==%2233333322%77",
"+<<1+1111<<<<+<<+<<1+1111<<<<+++=9799999999444:47=%2323333232%777=%2332222332%77",
"+<<<<<<<<<<<++<++<<<<<<<<<<<++++=99999999444444477%2323333232%7777%2323333232%77",
"+<<<<<<<<<<<<<<<+<<<<<<<<<<<<+++%q0000040554545577%2332222332%7777%2323333232%77",
"+<<<+<<<<<<<<<<<+<<<+<<<<<<<<+++%=======########77%2233333322%7777%2323333232%77",
"+<<<+<<<<<<<1<<<+<<<+<<<<<<<1+++%7%77777::::::%:77%;22222222;%7777%2332222332%77",
"+<+<++<+<<1<1<<<+<+<++<+<<1<1+++%777777777:7:::777%;;;;;;;;;;%7777%2233333322%77",
"+<<<<<<<<<1<1+1<+<<<<<<<<<1<1+<+%777777777777:7777%%;;;;;;;;%%==77%%22222222%%==",
"+<<<<<<<1<111+1<+<<<<<<<1<111<<<%777777777:7777777=%%%%%%%%%%*==77=%%%%%%%%%%*==",
"+<<<<<<<<<<<<<<<+<<<<<<<<<<<<+++%7%777+7777777%7%777777777=====%%777777777=====%",
"+<<+<+<<<<<<<1<<+<<+<+<<<<<<<+++%77+7<+7<7771777%%7777777=====%%%%7777777=====%%",
"##+#<###+#+##+####+#<###+#+##+##%%%%%%%%%%%%%%%%********************************",
"#::##:#::#+:::#:#::##:#::#+::###%999799979997999%%===777777777%%%%=====7777777%%",
"#::#::::::#:::::#::#::::::#:####%7==*7==*7==*7==%===--------777%%======77777777%",
"#:::::::::::::::#:::::::::::####%7==*7==*7==*7=====-->>>>>>--777==*%%%%%%%%%%=77",
"&&&&&&&&&&&&&&&&&&&&&&&&&&&&&&&&%7==*7==*7==*7====*->>---->>-=77==%%--------%%77",
"&666666666666666&66666666666&&&&%7==*7==*7==*7====%->->>>>->-%77==%-->>>>>>--%77",
"&666666666666666&66666666666&&&&%7==*7==*7==*7==7=%->->>>>->-%777=%->>---->>-%77",
"&666668866666666&66666886666&&&&%7==*7==*7==*7==77%->->>>>->-%7777%->->>>>->-%77",
"&666866666666666&66686666666&&&&%7==*7==*7==*7==77%->>---->>-%7777%->->>>>->-%77",
"&688886888666666&68888688866&&&&%7==*7==*7==*7==77%-->>>>>>--%7777%->->>>>->-%77",
"&666888866666666&66688886666&&&&%7==*7==*7==*7==77%o--------o%7777%->>---->>-%77",
"&666666666666666&66666666666&&&&%7==*7==*7==*7==77%oooooooooo%7777%-->>>>>>--%77",
"&666666666666666&66666666666&&&&%7==*7==*7==*7==77%%oooooooo%%==77%%--------%%==",
"&666666666666666&66666666666&&&&%7==*7==*7==*7==77=%%%%%%%%%%*==77=%%%%%%%%%%*==",
"&666666666688866&6666666666866&&%999799979997999%777777777=====%%777777777=====%",
"&666666688888668&66666668888&&&6%***%***%***%***%%7777777=====%%%%7777777=====%%",
"&666666666666666&66666666666&&&&%%%%%%%%%%%%%%%%**0*******0*********************",
"&666666666888866&6666666668866&&%9=============9*707777777077777*777777777777777",
"&666666666666666&66666666666&&&&%9=============979007777790077==7=*=77777=*=77==",
"&666666666666666&66666666666&&&&%977777777777779%990=777%990=77=%*=*=777%*=*=77=",
"&&&&&&&&&&&&&&&&&&&&&&&&&&&&&&&&%7*************7=%%%7777=%%%7777=%%%7777=%%%7777",
"&666666666666666&66666666666&&&&%9=============9*7====0777777707*7====7777777777",
"&666666666666666&66666666666&&&&%9=============9*777==0==7777707*777=====7777777",
"&666668866666666&66666886666&&&&%977777777777779777779007777790077777=*=77777=*=",
"&666866666666666&66686666666&&&&%7*************7==77%990=777%990==77%*=*=777%*=*",
"&688886888666666&68888688866&&&&%9=============9*777=%%%7777=%%%*777=%%%7777=%%%",
"&666888866666666&66688886666&&&&%9=============9*707777777077777*777777777777777",
"&666666666666666&66666666666&&&&%977777777777779=70777777=0===77=77777777=====77",
"&666666666666666&66666666666&&&&%7*************7*90077777900====*=*=77777=*====7",
"&666666666666666&66666666666&&&&%9=============9%990=777%990=777%*=*=777%*=*=777",
"&666666666688866&6666666666866&&%9=============9=%%%7777=%%%777==%%%7777=%%%777=",
"&666666688888668&66666668888&&&6%97777777777777977777777777777777777777777777777",
" ..............  ..............  ..............  %%%%%%%%%%%%%% &&&&&&&&&&&&&&&&",
" .;;;;;;;;;;;;.  .;;;;;;;;;;;;.  .$$$$$$$$$$$$.  %777777777777% &&&&&&&&&&&&&&&&",
" .;OOOOOO;;;;;.  .,OOOOOOOOOO,.  .$XXXXXX$$$$$.  %9==========9% &666666666666666",
" .;,,,,;;;;OO;.  .,;;;;;;;;;O,.  .$@@@@$$$$XX$.  %9=7777777779% &666666666666666",
" .;,,;;;;OO,O;.  .,;;;;;;;;;O,.  .$@@$$$$XX@X$.  %9=7777777779% &&&&&&&&&&&&&&&&",
" .;;;;;OO,,,O;.  .,;;;;;;;;;O,.  .$$$$$XX@@@X$.  %9=7777777779% &666666666666666",
" .;;;OO,,,,,O;.  .,;;;;;;;;;O,.  .$$$XX@@@@@X$.  %9=7777777779% &666666666666666",
" .;;;;;;;;;;;;.  .,,,,,,,,,,,,.  .$$$$$$$$$$$$.  %999999999999% &666668866666666",
" .OOOOOOOOOOOO.  .OOOOOOOOOOOO.  .XXXXXXXXXXXX.  %============% &666866666666666",
" .O..........O.  .O..........O.  .X..........X.  %=%%%%%%%%%%=% &688886888666666",
" .O.OOOOOOOO.O.  .O.OOOOOOOO.O.  .X.XXXXXXXX.X.  %=%========%=% &666888866666666",
" .O.OOOOOOOO.O.  .O.OOOOOOOO.O.  .X.XXXXXXXX.X.  %=%========%=% &666666666666666",
" .O.;;;;;;;;.O.  .O.;;;;;;;;.O.  .X.$$$$$$$$.X.  %=%77777777%=% &666666666666666",
" .OOOOOOOOOOOO.  .OOOOOOOOOOOO.  .XXXXXXXXXXXX.  %============% &666666666666666",
" ..............  ..............  ..............  %%%%%%%%%%%%%% &666666666688866",
"                                                                &666666688888668"
};
