/* XPM */
static char *_65fc8a85f9e436eef9269afab948d1dE0qpLUZ942lQYaep[] = {
/* columns rows colors chars-per-pixel */
"128 128 80 1 ",
"  c #0D1216",
". c #0D1319",
"X c #111517",
"o c #1F1C17",
"O c #131519",
"+ c #1B161A",
"@ c #141819",
"# c #1F1C19",
"$ c #251715",
"% c #251C17",
"& c #2A1D17",
"* c #241D19",
"= c #2B1E19",
"- c #301F19",
"; c #2D2017",
": c #26201E",
"> c #2D211B",
", c #312217",
"< c #33231A",
"1 c #3C261B",
"2 c #37281F",
"3 c #3D291D",
"4 c #261F21",
"5 c #281F21",
"6 c #272021",
"7 c #2A2121",
"8 c #332521",
"9 c #392721",
"0 c #362821",
"q c #3D2B21",
"w c #3F3026",
"e c #472B13",
"r c #482C14",
"t c #41271B",
"y c #43291B",
"u c #4B2B1C",
"i c #412D22",
"p c #442F22",
"a c #432F24",
"s c #412D27",
"d c #433023",
"f c #413025",
"g c #443124",
"h c #483223",
"j c #4A3423",
"k c #483324",
"l c #4C3325",
"z c #4A3424",
"x c #4B3426",
"c c #4F3525",
"v c #4D3427",
"b c #4F3827",
"n c #433229",
"m c #493629",
"M c #4F3628",
"N c #4E392B",
"B c #503525",
"V c #503724",
"C c #523727",
"Z c #503927",
"A c #523927",
"S c #5B3D27",
"D c #503628",
"F c #51392B",
"G c #523A2A",
"H c #533A2A",
"J c #5C3E2A",
"K c #4F3B31",
"L c #523C30",
"P c #603F2A",
"I c #613F2A",
"U c #5D4027",
"Y c #5E402A",
"T c #5F412B",
"R c #5F422D",
"E c #5F4431",
"W c #61412B",
"Q c #61422B",
"! c #60422C",
"~ c #604431",
/* pixels */
"6466646666666666664666654646654656:666566666545466656656444446664644546466666666:66664646655666656666565666655656644466556444444",
"644665545666466656656:66565656666656:65665566544656666664466666656656466656665665666656665666666666666:566:666664655646666666464",
"66646645646666666566665666*566:666664666=666666566556666646666656566566664666466666=65654566656:65=66666646666666546565:64544464",
"6664=***************************************************************4****4***44**44**4*******444**645466464644655666446656444444",
"644qqqqiqvvvvvvvvvvbvvvMvvvviggdvMvvMvvvvvvvvvvvvvvvvvvvvvvvvvvvvMvvvvMvvvvvvvMvvvvvvvvvvvvvvvvvvvvzdiiiiiiiiiiiiiiidiqiqiqqf646",
"646sqqqqqvBvvvvvbvMBBvvBvvvMgggpvvvbBBBvvvNvvBBvvvvvvvvvvbBvvvvvvvvvvbvvvvvvbbbvvvbBvvvMvbvvvvvvvvvlddigdidiiiiiisiiiiiiiqiid644",
"445sqqqqqvvvvvvvvvMvvvvvvvMvggggvvvZvDBvbbBvvvvvBvvMBvvBZBZvvvvvvNbvvvvvvvBvvvBvBvbvvvvvBBvvBbvvvvvzdddiipiiiiidiiiidiiqiiqis544",
"444sqqqqiqiqqpvvBvvbMvZvvvvvBvvBBvbW!WT!!TTWTWI!WWT!!T!!TDbvvvMMvMvbvvvvvvMMv3qq33q3iiyijzzhZZZBBBBBFZBBvZbZbBZFFZBFiisiiFFFm446",
"655sqqqqqqqqigvvMvMvvvBNvbbvvvvvBbZWWWTTTTTTTTTTT!JTTTTTTBvvbMvMvvvvvvvvMvvvB!TTTTTTWTTJhzzzBZBBZBbZMvvBvvZbvvvvZvvviiiiiBMbF445",
"665qqqqqqiiiipvvvvBvvvMbvNvbvvvNvvb!TTTTWWTTWTTTWTIJWTTTTBMvvvMvvvvvvvvvvvvvbWT!TTTTTTTWzzzgNvBvBZZZvvBvBBDZbvBBBBvZidsiivvvF666",
"666sqqqqiiiiigvvvBMvvbZvvvvvbvvNbbbWWW!WWWWWWWWWTWWWWWTTWBvBbvvvvMvvvvvvvvvvM!TTTTT!!TTWzzgzZZZFZZZbvFvvvBvvMvvvZBMbpddiivvvN446",
"664fqq3JJJTJJJJJJJJJTJTTbvFZbvvvvvvvbvvvvvvvMvvvBvvvvvvvBBvvbvvvvvMvvvsdidisvvvvvvvMvJJJJJTTJJJJJJJTTTTJJJJJJJJJJJJTJBvvbvvvN644",
"646fqq3JJJJJJTTTJJTTJJTTvBvvbbbvvvvvvvvvvvvvvvvvvvvvvvvB$=&&=&&=&&=&&=&1fdisvMvvvvvvvJTJJJJTTJJJJJJJJJJJJJJJJTJTJJJJJZvvvvvMm54*",
"644sqq3JJJJJJJTJTTTJTJTTbbvMvvvvvvvvvvvvvvvvvvvvvvvvvvvv%&&&;&&&&&&&&&&3fsssvvlvvvvvvJJTJJJJJJJJJJJJJJJJJJJJTTTTJJTTJZvbvvvvm646",
"666nifiJJJJJJJJJJJFSFJJTbvvvBvvvvvvvvvvvvvvvvvvvvvvvvvvv#&&=&&&&=&&&&=&3pigpvvvvvvvvvJJJJJJJSFJJZJJSFSZSFFSSBBZvBBvBvvvvvvbvm654",
"644646*qqqqqqqqqqqqqvvvbvbMBvvvvvvvvvvvMvvvvvvvvvvvvvvig%&&%=&=&&&&&&&%tJvvvvvvvvvzvvvvvvzzvvvvl8888886666*vzvzzvvvvvvvvv008q644",
"646:55:qqqqqqqqqqqqqvvvbvvvvZvvvvvvvvvvvvvvvvvvvvvvvv<;;u3t3tttt1111<<<&=$%vvvvvvvvvvvzvvvzzvvvv8888886666*lvvvvvvvvvvvvvqqqq544",
"64466=:qqqqqqqqqqqqqvvBvvvvvvvvvzvvMvvvvvvvvvzvvvvvvv=&%u131tttt1122<,<%=*&vvvvvvvMvvvvvvMzvvvvv<888887666=zzvvvvvvvvvzvvqq0q664",
"446wqwqFFMFFNNNFFFFNvvvvvvvvsigiq8<888NDNMNFFvJSFSSZZ==&t311tttt2111<<<%=*%BBz32<<<<<<<<;;;>>***65:2TR~EEE~iqq<<>;;<><<<<====:44",
"654sqiyBvbbvvvvvvBvvvMvvvBbBpgdis888888888888<SSJ;==&<<<t1ttuuuu3111323<<<<&===iii08888888888:66666&JJJJJJSddg<888<<88<886666644",
"64*sqqivDBBvvBvBvBvDBBbbvDBFpisss8<8888<88888<SFJ=&&=<<<ttttuuuu3333113<<<<&&=&iii<888808<8886666:6&JJJTJJJisi8<<8888<<<8:66:464",
"666qqq3ZBZZZvvMbbvMMbNDMMDMbggfgf88888888888<<FFS==&&<<<ytttuuuu3311133<<<<=&==iii88008<<8888464667=JJJJJJJgpp><>>>>>>>>>==*4646",
"66=siqqBvvvbvZWWWW!WWWWW!!!!WWW!!!W!!WDvzvvvvvvhg===&<<<tt3tuuuu1113311<<<<=&==Bvvvvvvvb!!WWW!!WTTTWTTTvvzvzvvvvzzzzzlzvzqqqq445",
"664fqqqvMvvvbZWW!WW!W!!!W!W!W!!!WW!!!!Bvvvvvv%%$*;&;;111uuuuuuuuuuuu3111113=;;<***uvvNvNWW!WWWW!WTTTTTTvvvvvvvvvvzvMmzvzzqqqq666",
"66:iqq3vBDvvvSWWW!!W!WW!WW!W!!!!T!!!!!FvvvvvB+&%%;;;;313uuuuuuuuuuuu33t3311;;;;%*%3vvvvvW!W!WWW!!WTW!WIvvvvvvvvvvlzzvvvvv3qqq456",
"646===*<======&&&&$$$$$$$$$$$$$$$&$$&&=&====<#&%=;;;;313uuuuuuuuuuuu3311111;;;=&&&<qq9q<q<2<<<<<<;;<<<&<=&=*&=====*&$===&=*=:654",
"66666666:66656:667:::6677776>666767666:666<82+&=&=;=;113uuuuuuuuuuuu1313321=;=;%&=,<7>777777777>77777>66=6666:6666666:676566:644",
"656656:6:666::6666666666776766:676:666776:=**&&&&<<<<tttttttuuuut3131331212<<<<&&&$=*%777>767777777::6:76666::6666:66>6765566664",
"6466::56=:6::::6:==::::>>>>76:6:>::=6:::7>=*$&&&=<<<<tttttttuuuu3t31t131111<<<<&&=%*%%>>>>::>>:>:>>>676>:::::6==66=>:=665=666656",
"665qqqqqqqhvvzzzvvvlvvFJJJJJJTJTJJJJJTJJJJ2%%&&=&<<<<tttttttuuuutttt13t1311<<<<&&&&*%*vvvvvvvvvvvMZvBBvBBvgppisgsigpfisfpidsz666",
"566qqqqqqqzvvvvvvvvvvvJJJJTJJJJJTTTTJJJJJJ2%%&&&=<<<<tttttttuuuut3113313131<<<<&&&%%:%vvvvBvvbvvvBBBbbbBBBpgipgpppgpiiidiiiig466",
"646qqqqqqqzvvvvvvvvvvvJTTTJTTJJJJTJJJJJJJJ2%%<;;;<<<<3311333ttt3tttt3331<<<<<<<&;&=**%vvvvvvvvvMvvBBbBvvBBppiigippppggpiiidig566",
"466qqqqqqqzvzzvvvvvvvvJTJJTTTTTTJTJJJJTTJJ2%$<===<<<<333133333tt3ttt3331<<<<<<<:&&=***vvvvvzvvMvzvvvvvMvvMpiiddiiiiiiddddidif665",
"666NzMvzvvvvvvvvzvvvvvvMDbvvvMvvvvvMMvvvBv<%&<;;;<<<<3133313tttttttt3t31<<<<<<<===:**%JJJJJJJJJJJJJJJJJJJJJJJJJJJJJJSgdgiiiig646",
"665NvvvvvvvvvvvvvvvvvvvvvvvNvvvvvvvvvvvvbv<&%;;;;<<<<3t13333t33tttttt31<<<<<<<<=;&=**&JJJJJJJJJTJJJJJJJJJJJJJJJJJJJJSigdiiiig456",
"656Nvvvvvvvvvvvvvvvvvvvvbvvvvvvvvvvvvvvvbv<%%<;;=<<<<<<<t3323313tttt<<<<<<<1111=;===*=JJJJJJJJJJJJJTJJTJJJJJJJJJJJJJJiddiiiif454",
"66:mNNNNNmmNmmNmKNNFFNvvvvvvNFFFFDbNFvvvvv<**<;;;<<<<<<<33333131ttty<<<<<<<1111=::=%**SJJZZZSSZZZSSSJSSSZZFZZZZBFZSFZgpgipiig566",
"46688><8<7<>878:**::4*vvzzzM<8888iiiiivvvv<**;;;;<<<<<<<33313311tttt<<<<<<<1111;;;&***JJgiiidiiiiiiiiiivvvvvvvzvvvvvvvvvvvvvF655",
"4648888788<7>8<6*4***4vvzzzz28<88iiidivBBB<*%<=;;<<<<<<<31133123ttty<<<<<<<3313;;==%*&BBhiiiiiiiiiiiiqivvvvvvvvvvzvvvvvvvvvvN446",
"64588877887>>>7:646**4000vvv2<888iiigiz:**===;;;;;;&;<<<<<<<313331331<<<1<<;;;<=&=&&=&***iiiiiiiiiiiiiqvvvvvvvvvvvvvvvvvvvvvF655",
"666NJJJJTJJJJJJJJ!88<888>vvvvvvvvvWWW!W<**=&&;;;;;;;<<<<<<<<11133311<<<<111<;<<=&&=&&=***vvvvvvvvvvvvvvvvvvvvvvvvz88<<77766765=5",
"666MJJJJTTJJJJJJJ!<788<8>vvvvvvvvvWWWWW;**=&==;;<;;;;<<1<<<<131333131<<<<<<;;;<==&==&&*%%vvvvvvvvvvvvvvvvvvvvvzvvv8888>776776556",
"66*NJJJJJJJTJJJJJT88888>>vvMvvvvvbWW!!W;**&&=;=;;=;;;<<;<<<<222221211<1<11<;;;&====&=%***vvvvvvvzvvvvvvvvvvvvvzzvv88887>76665556",
"656nFFSSSFZJJSJJJJ<<<8<<>nngqqqqqiBBZZZ:%*=&&&&==;;;;;;;&;;;<<<<111211<<;;;&=====&&&%%*%*NNzzzzmMmvvvvvvvvvvvzvzvv8<<77776666654",
"65*sqq3vvvvvvlJJSJJJJ888<88<766><<88808**%=%&&&&=<;;;;;;=;;;<<<<111<<11<<;;;==&=&&&%*%***>>qqqqqqqvvvvvvvMvvzvvvvvvzvvlvvqqqi666",
"566sqqqvvvMvvvJJJJJJJ888<88<>6668<88<88***%&&&&&=;;;;;;;;;;;<<<<<1<1<11;;;=========&*&***<:qqqqqqqvvvvvvvvvvvvvvvvvzzzvvvqqqi665",
"646sqq3vvvvvvvJJJJJJJ8888<8<>6:8<8888<8****%*=*&&****;;;;;;;<<<<<<<<<<<;=;===&&$$********<:qqqqqiivMvvvvvvvvzvvlzzvvvvvvzqqqs556",
"665sqq2vvvvvvvvvzgzgb!TTWWWWTWTJf80<qMN=*****%&&*%&%*;;=<;;;-<;<;;;;;<<&&&&&&&=%$*******%WWWWWWJTTTTTTTTTJJJzvvvvzzzvvzvzqqqd5=4",
"646qiq3vvBvvvvvbBzggvTJTTWWTTT!JNqqqvvv=**%%*%%%*&=&%;;=<<;=;;;;;;;;;;<;&==&===**%%*%****WWW!TTTJTJTJJJJTTJTqqqzvvvvvzvzvqqqd=66",
"646sqq3vBvvvvbBvvgggvTTWTTTTTTTJFqqqvvv=***%%%%$=&%&%=;;=;;;;;=;;;;;;;;=&=&=&=&$%%%******WWTTWTTTTTJTTTJJJJTqqqzvvlvvvzvzqqqf566",
"646qqq3vvvvvvvvbDzgzMTJJTTTTTTTJNqq===;<<<===***$%=&%%%*&&=&===&=%&=&&==&&=%%*%$*%*;&=<<<;;::JT!TTTJJTTTJJTTqqqzvvvzvzzzzqqqw666",
"646666:>>>::>777>77<>>>77>>6>>>>>>7*%*=<<<=&;*****%%*%%$=&&&==&&&&===&==&=&***$****&;;<<<***%<>7>=>>>6:>>:=:=::5:=:::7=>77676446",
"64666677667>:7766777>7:>77>77777777**%*<<<;&;*%%**%*=%$%&=&&&&&&&=&&&&=====%**%****;&=<;<***$<>7>66677>6::5:66::6:6:6:666676:656",
"665666:7>76>66777777>77:7>7::>77767%&&&1<111<<<;;<;<;*******%%***%********%<<<<<<<&131111%%%%:6:66:6>>5766==:::6:75:665666:76555",
"565=*><gsfngggsgfffsffqissgnfsssiii*=&=1<1<1<:;;;;;;;***%*%******%********%;;;;;;<;111111%%$%<;<$$**%$$$**$*%***$*$***=*=**=*5=6",
"556qqqqBvvvMBvvBvvvvNvvvvvMvvvBBvMv&$==<11<11=;;;;;;;******%******$********=;;;;;;;111111%%%%gvvvzvvvvvvvvvvvvvvvvvpiiiidiipg446",
"656qqqqvvvvvvvvBvvvMvvvvvvbbvvvzvvz&%&<<<<<<1=<;;;=;;*%%******%***$*%%****%;;;;;;;:131311*%%=ivvvvvvvvMvvllvlvvvvvviiiiiiiiig666",
"566qqqqvvvvbvvvBbvvvvNvvvvMbBMv=&=*<<<<<<;333tyyt<<<<;<<<<<<<<<<&&&=&=;;<<<<<<<yyyyyyy<<<&==;%*%;vbvvvvvvzvvvMvvvvviiiiiiiiif546",
"665KvBvMvvvvbbBvvWJTTTTTTJJTTJT=&%&<<;<;<;333ttyy<<<<;;<<<,<<<<<=&&&=;;<<<<<<<<yyyyyyy<<<*:=;**%:vvvvvvvvvvvvvvvbvvzjgpggipyk665",
"665NvvvvvvvvBbvvvTJJTTTTJJTTTTJ&%&&<;;<;;;133ttyy<<<<;=;<<<<<<<<&&&&;;=<<<<<<<<uyytyyy<<<==;:%%%<TTTTTTJMvvvvJTTTTTTJBvvvvvvN666",
"566FvBvvvvvvvvvvMJJJJJTJTJTTTJT%&&$;;;;<<;133tttt<<<<;;;<<<<<<<<:;=&&&;<<<<<<<<yyyyttt<<<===;%%%<TTTTTTTvvvvvJTTTTTTTBvvvvvvN656",
"664FvvvvvvvvvvBvvJJTTTTTTJTJUJJ%%$%<<<1111=;;11131331yyy333133133333ttt3t33t111<11<<<<;;;1<<<%%%<TTTTTTTMvvvvJTTTJTJJBvbvvvvN566",
"566qqqqqqqqqqqqqqqqqqqqqivbBvvv$&==<<<1111;;;21331313yyy333333133313tttt33333t3<11<<<<&=;<<<<*%%=777<78zbvvvvvvBBbvvMvvvbfiqq566",
"656qqqqqqqqqqqqqqqqqqqqqqvBBvBv&&&$<1<1111;;;11313311yyy133333333333ttt3t3333tt<<1<<<<&;;<<<<%%$=<7>>>>Nbvvvvvvvvvvvvvvvvdiqq564",
"465qqqqqqqqqqqqqqqqqqqqiqbvBvvb&&*&1<<1131;;;<1<<1313ttt111121211121ttt3311<1<1<<<<;<<,<<<<<<%&%&7787>7vvvvvvvvvvvvvvvvvvgiqq666",
"666FvvvvvvvvvvvvbBvbvvbBBvBMbbJ&&&&<<<33t3;;=;=;;<<<<333uuuyuuuyyuuyttt1111<<<<<<<;&&&<<<<<<<&*&=<8>09q3y332323312122vvvvvvvF665",
"566FvvMMvvvvvvBvvvvbBvvvBBbFBBJ&%%%<<<3333&&;=;=&<<<<133yuuyyyyuuuyuttt311<<<<<<<<;&=&<<<<<<<&&&&888qqqiqq3qqqq3qqqqqvvvvvvvF766",
"655FMvMFvvvvbvvvvvvvMMvvvFvBBBJ&%%%<<<33t3;;;-;;;<<<<331uuyyuuuyuyyyttt3111<<<<<<<==&=<<<<<<<&&&&880qqqqqqqqqqqqqqqqqvvvvvvvF665",
"655FvvvvvvMvMvvBvvvMvvvMvZZBvvJ*o**<<<tttt;;<;<=;===;;:=,<<<32333t33:;;;;;;;;<<&==&;;;311:;;<%%o*888qqqqqqq3q3qqqq3iqvvvvvvvF465",
"666FMvBJJJTJJJJJJJJJJTTvBvZZBBv****<<<yytt<1<=;;;;;=;,-<1<<<3133tt3t<<<<<<<<<<<&=&;;;=331;;<<**o:vvzvvvvvvvvvvvvvvzvvvvvvvvMF666",
"66:FbbMJJJTJJJJJJJTTJJTMvvvvZbv****<<<tyyy11<:;;;;=&=<,<1<11tt333t13<;<<<<<;<<<&=&;;;;333;;;<oo*;vvvvvvvvvvvvvvvvvvvvvvvvvvvF656",
"65:FbbbJJJJJJJJJJTJJJJJMbbvvvbv****<<<3ttt<<<=;;;;=;;<;<1<<<t33t333t<<<<;<<;<=<&&=;;<;331:<;;***;vvvzvvvvvvvvvzzzvvvvvvvvzvvF666",
"566MvvvWWTJTJJTJJJTJJWIvZvBvvvB*o*%==&;ttt333:;;;<<<<=;;;;==<<<<<;;-;;;;;;<&&&;;;=1313333&=&=*o*;vvvvvvvvvvvvvvvlvvzvvvvvllvN466",
"546fiiiiiiiiiiiiiiiiiiiiiddiiip*o**&=%*yty333&;;;<<<<;;:;;;&<<<;<<<<<;<;;;;====;;;3111333%=&&***;vvvvvvzzvvvvziiqqqqqqqqq800q556",
"646siiiiiiqiiiiiiiiiiiiiiiiiisp****&=&=yyy333;;;;<<<<;==;;;;<<<<;<<<;;<<<;;&&&=;;;1111333==&&***;vvvvvvvvvvvzvpiqqqqqqiqq00<q466",
"555fiiiiiiiiiiiiiiiiidiiiiiiiip**o*&=&1tyt333<;;;<<,<;;;;;=;<<<<<<;<;;<<;;;==;=;;;1113331&&&&***:zvvvzvzvlzvzviiqqqqqqqqq880q6=6",
"666wnffffffnfffgnnfngnnngffnnfgo**%&&&;<<<333<<<<<<<<1<<:;;;;;;;;;;=&:&=;<;<<<<;;;<333ttt&=&=ooo>FFFLFFFFNNFFNdiiiiiiiiqqq9qq564",
"64666:6766676766666666766>66:6<****&&&;<<<33t<11<<<<<1<1:;;;;;;;=&==&==&<<<<<<<;;;<133ttt*&&=o*o*>:>67>76::>>7>777>7>77777>:6546",
"466666=6666::7==6665:6:=:6:65:>%***&&&;<<<331<<<<<<<<1<1;;;;;;;;=:=;=&;=<<<<<<<;;;3333ttt%&=&*oo*7767:>>>77::::>77>77>>>:77:6564",
"6446::6665:6657=6=6667:7:6666:5o**%&&&&<<<333<<<<;<<<1<<*&;;;;=;:;=;==;&<<<<<<<;;=1333333%==&*o#*77776>>6>>7>:77>777>>7>76::7645",
"6648qqqqqqNNFFFFFFFFFFFFFFFFFFF**o*;=;&<;;tyt<<<<;;;<ttt1<<<;&&&;;<<<<<<1<1<<<<;;;tttt<<<&;;;*#*;ZFZFNMZBNDbMNMNNvbBbbbNNvMZF666",
"665qq2qqqqbvvMbvvvvMvvvvvNbbbDv*%**;=;<;;;ttt<<<<;;;;3332<<1=;;<;<;<<<<<111<<<<<;;3ttt<<<&;;;oo*:NBvvvzvvvzvvvvvvvvvvvvvvvvvF*46",
"656q02qq2qbvvvvvvvvvvvvvbvZvNMv*o%*;;;;;;;ytt<<<<;;<;t3t<111&;;=;<<;<<<<111<<<<;<<tt33<<<=;;;*o*:vvvZvvvvvvvvvvvvvvvvvvvvvMvF466",
"64602qqqq2vvvvvvvvvvvvvvvMvvvvB*ooo=&=<<<<11113tt<;;;<<<13t33333<,<1<<<1333;;<;;<;tttt<<<%&&&**o;vvvvvvvvvvvvvvvvvvvvvvvvvvvF646",
"454NvvvvvvvvvvTTTTTTUJUTTJJTJJS*oo*&=&<<<<111333t<<<<<<<33333331<<<<11<<333;<<;;;;ttty<<<%=&=ooo;vvvMqqsqq3qqqiqiNvvvvvvvvMvF665",
"545FbvvvvzvvvvTTTTJTJJTTJJTJJJS**oo&=&<<<<1112331;<<;<<<33333333<<<<<<<<3t3;<=;;;<3ttt<<<%&=&o*o;vvvbqqqiqqiiqiiqbvvvvvvvvzvF664",
"666FvvvvvvvzvvTTTTTJJJJJJJJJJJJ***o=&&<<<<11133t3;;;;<<<13333333<<<<<1<1333;<;;;;;tttt<<<%&&&**o;vFZviqiiqqqqiiiqvvvvvvvvvvvF446",
"664FvvbvvvvvvBTTTTTTJJTJJJJTJJS%*%$=&;<<<<<<<3yyy;;;;;&;yyyy3333<<<<33t1<<<;;;;<<<1t33<<<=;&;%**:BBZv3q3qq3q33qq3bvvvvvvvvvvF654",
"454Nvvvvvvvvvvvvvvvvvqqqqqq0809%%%*&&;<<<<<<<tyyy;<;;<;;uyyy3333<<<1tt3<<<<;;<;1<<2333<<<&;=;%*%>vvvvvvvvvvvvvvvvvvvvvvvvvvvF446",
"644mMvvvvvvMvvvvvvvvvqqqqqq8889%***;&;<<<<<<<yyyy;;<<;;;uyyy3333<<<1t33<<<<;;;=<<<1331<<<===;***;bvvvvvvvvvvvvvvvvvzvvvvvvvvF664",
"466mvvvvvvvvvvvvvvvvvqqqqqq<88<=::*;;=1<<<<<<tyyy<<;;;;<uyyy3333<<<<333<<<1;;<<<<<1113<<<&=;==;;2vvvvvvvvvvvvvvvbvvvvvvvvzvvF566",
"565><92280q292q2qvvvvqqqqqq<888877>%&%<;;;<<<tyyy<<<<;;;t1113333333tttt<;;;;;;;3333<<1<;;%%**vvvvvvvvvvzhhvvvvvvvvvvvvvvviqqq444",
"666>q2qqqqqqqqqqqgggzvvvvvvbvvvvvvv%$*<;;=<<<3yyy<<<<<;<311133333333ytt<;;;;;=-3131111;;<***%vvvvvvvvvvvJJSJJJJJJJJJSlvvviqqq644",
"446>qqqqqq2qqqqqqkggzvvvvvvvvvvvvvv%*%<=;;<<<3yyu<<<<;<;311133133333ttt<=;;;;;&3313111;;;*%**vvvvvvvvvvzJJSJJJJJJJJJJvvvvqqiq*46",
"446728q0q22222<qqzgghbvvvvvvvvvvvvv$*%<;;;<<<yuuu<<<<;;=t11133311311tyy=;;<;;;=313321<;<<%*%%vvvvzvzvvzzJJJJJJJJJSSSJvvvvgigk446",
"456NvvvvvMvvvvvvvvvvbvvvbvvbvvvvvvv%$%<;<=1<<1131<<<<&;;1<<<yyyyyyyy111:===<<<<yyy11<1;<-*%%%88qqqqqzvzzzzvvzlzzzzzzzzlzzvvvF444",
"666Nvvvvvvvvvvvvvvvvvvvvvvvvvvvvvvv**%;=;;1121111<<<<===<<<<yyyttyyy111<=;=<<<<yyy<1<1;==%%%%08qq3q2vzvzzzvzzzvzzzzzzzzlzzvzN4*4",
"665NvvvvvvvvvvvvvvvvMvvvMvvvvvvvvvv%%%;;;;1111113<<<<&:;1<<<tytyyyyy111;==:<<<<yyy2111;;;%%%%28qqqq2vvllvzvzmvvvzzzzzzzzvzzlM646",
"6468q3ivvvvvvvvvvvvvvvvvMvvvvvvvvvv&&&;;;;<<<113t1111;&=<;;<111111<<;;:&;=;<<<<ttt<<<<<;;$&&&323qiiqq3qqqzzzzzzzzp22q32qq23qq564",
"565qq2qvzvvvvvvzvvvvvvzvvvvvJJJJJJJ;&&;;;;<<<13331111==;<;<<111111<1;;=;===<<<<ytt<<<<;<<%&&&vvzlzvzzzzzvzzzzzzzziqqqq222q2qq644",
"656qqqqvvvvvvvvvvvvvvvvvzzvbJJJJJJJ&&&<<;;<<<13332113=;;<<;;1111<111<<;&;=;1<<<ttt<<<<<,<&&&&vvvvvvzvzzzzzzzzzvzzqqqqqq2qqq2q446",
"666q3qqlvlvvvzvvvvvvvvvvvvvvJSJJJSS&&&<<<<<<<133t1111=;=<<=<311111<1<;<;&&;1111ttt<<<<<<,&&&&Bvvvvvzzvhzllvvvvzlviqqqqqqqq2qq664",
"544:665=76=5:566:656667=66:>7888<802qqqqqqq2q=*$***********%***%%%%***********=***=;;&&&=&&&;8<8q8888876:666==6::*4:65=6*4=44644",
"6446566=6:6=66:5666:666666:78888<8qqqqqqqqqqq:%%*****************%**************%%%&==&&&,==-8880qq8888677::6:=666:6*66:55*45544",
"555665:5666:6:76:766:66:5::7888888qqqqqqqqqqq:*%*****************************:***%*&&;;;;,&&,<88qqq888>66666=::6=6:566=6466:6654",
"44656:::*44**4*44*44444666:6777777qqqqqqqqqqq******:***:**%***$&%*******:******%*%#**====:>>>808qqq08776666666666646666665666445",
"446miiiJJTJJTJJTJJJJJJBvvvbbZvvvvvvvvbvvvvbbv:*%*===&;,;&;=*%*Xrr*$*;;:&<<<=&::***@JJJTJTJTJTJTTJJWvMvvvvvvvvvvvvvvvzvvvvdisi664",
"665gdsiTJJJJJJJJJJJJJJZBvvvbBvZvvvbvvvvvvvvvv;***;;;&<<;:;&%** rr*%%&&;;<<<===;***+JTTJTJJJJTTTTJTWvvvvvvvvvvvvvvvvvvvvvzfiis446",
"664fii3JTTTTJJJJJJTJJJZMvvBBvvvvMvvvbvvvvvvMv;***;:;=<<<===*%%.re%*%&;;;<<<=;&;*%*OJTJTTTJJTTTJTTJTvvvvvvvvvvvvvvvvvvvvvzpiis446",
"446fii3BBBZvBBvZBBZZZZbvvvvvvvvvvvvvbbvbvvvvv>%%%<<<<<<,&%&%**Ore*%*&&;%<<<<<<<%*$XJTJJTJTJJJJJJJJSvvvvvvvvvvvvvvvvvzvvvvdiif444",
"666iqi3vvvvvvvvvvvBvvvvvBvvbvvvvvbbbbMvvvvBdg:*%*<<<<<<<&&&%%%Xer***&&%$1<<<<<<***Ovvvvvvvvzvvzvvvvvvvvvvvvzvvvvvvvvvvvvviiif6:6",
"656sqq3vvvvvvvMvvvvvvvvvbvvbvvvvvbZBvbZvvvDvb;%=*<<<<<<<%%&***.rr%**&=&$<<<<<<<%%%Xvvvvvvvvvvvvvvvvvvvvvvvvzvvvvbvvvvvvvviiis466",
"666qqqqvvvvvvvvbvvvvBBbvvvvvvvvvvvvvvvvvvbbvF<<<<<<<<<<<=&&%*%@rr$*%&&&%<<<<<<<%==*vvvvvbvvvvvvvvvvvbvvvvvvvvvvvzvvvvvvvviiiq664",
"454Mvvzvvvvvvvqqqqqqqq7888788qiiiiqiqqZvbbNvBvBvv;*%=******#MvMvvvvv<%%==****%=TJJTJJJJJTJbqqqqqqqqdggdiii<<8<8887:66655555:4644",
"646mvvvvvvvvvjqiiqqqqq78<788<qiiqiiqiivvbMbvBvMvb*%*****:*%Xbvvvvvvv<%%%**=*=*:JTJJTJTJTTJZvvMzzgsdgfgsiii0888808>65566566666564",
"464mzvvvvvvvvvqqqqqiqq7<<8888iiiiiiqiizZBvvvvDvvv**;=***%**.BBvvvvvv=*******==;TJJJJJTJJJJBvvvvvvvvvvvzqqq888<808>::6:===56=5444",
"665mvvvjvvvvvviqqqqqqq>78787>qqqiqqiiiivvvvvbvvBB:;::;;<;;;#vMvDBBBN<<<<2<<<<;<TTJTTTJTJTTvvvvvvvvvvvvzqqq0088088>::666565466446",
"6568>777>8fiiiiSHSZZSSZFSZSZZZSZFZSiiiiiiqiiiiivbvvvvBvBvvvvZJJJJJJJJJJJJZbvvvvvvvvvvvvvvbvvvvvvvbvvvvvvvvvvvvvzvvbvbvvvvpiii564",
"5467>7>>77siiiiSHSSSZZSSZSZSSZFSSSZiiqiiiiqiiiiMbvMvvvbvvvvvbJJJJJJJJJJJJvvvvvvvvvvvvvvvvvvvvvvvvvvvvvvvvvvvvvMvvbvBvvvvviiid444",
"6467>>7>77siiifFSZZSZSZSSSSZZSZSZSZiiiiiiiiiiiivvvbvvvvvvvvvvZvBBBZZZSBBBzvvvvvvvvvvvvvvvvMMbvvvzvvvvvvvzvvvvvvvvvvvvvvvviiii464",
"444nqqiqimFZvzzFZBZFZSZBZZBDZBDZBBviqyt33t33333vvvvvvvvvvvvvvMMMMvMvlvvvvvvzzvzvvvvvvzzvvvvvvJJFFFSvvvzvzvvvzzvvzvvviidggqiif644",
"666giiiivZBZZZSSFZFZdiiiiiiBZZFZBFZZZZZBZBFZZBZBDFZFZBZvvvzvvvzzzvvzvzvvvzzzvzvzzzzvvvvvvvvvvJJFFJJvvvvvzvzzvzzzzzzvqqiiiiiig464",
"466niiiiZZZFFBDZZZZZiiiiiiibBFFZZFZBZZBZBZBZZZZFZZZFBBFvzvzvzzvvzvvvvvzvzzzzzzzvzzzzvvvMvvvvvSFSSZSvvzlzvzzzzzzvzzzzqiiiiqiis664",
"444giiiivFZBZZFZFZZBiiiipiiBvBZZZbBBZZZBZBFBFBZBFZZBBBDvzvvvvzvvzvzvMvzvzvzvvvvvvzvzvvvzvvvvvSZSHZZvvmvzzzzzvzzzzzvviiiiiiiid644",
"44664645646566665666=6666664666666465446666654*46:54*466646565666654666666646666554665666=6665645*465666566665566666646546644464",
"46464664664466666565646556645466466664665666664546666666464666445666566444664646644666666566664544666444646664664646666446664444",
"64444664664464445444466666644464446454466454664665644464444446444446444446446464644446644446644444464444646444464444464466666446",
"44444466444464646644644444446446444444444646444644446444444446444444444446464444644644446444444444444644446464464466446644466444"
};
